<?xml version="1.0" encoding="utf-8"?>
<!-- Generator: Adobe Illustrator 22.1.0, SVG Export Plug-In . SVG Version: 6.00 Build 0)  -->
<svg version="1.1" id="Layer_1" xmlns="http://www.w3.org/2000/svg" xmlns:xlink="http://www.w3.org/1999/xlink" x="0px" y="0px"
	 viewBox="0 0 595.3 841.9" style="enable-background:new 0 0 595.3 841.9;" xml:space="preserve">
<g>
	<path d="M269.1,368.1c-0.5,0-0.9-0.4-0.9-0.9v-28.8h-5.9v27c0,0.5-0.4,0.9-0.9,0.9h-18.6c-0.5,0-0.9-0.4-0.9-0.9v-27h-5.9v28.8
		c0,0.5-0.4,0.9-0.9,0.9c-0.5,0-0.9-0.4-0.9-0.9v-29.7c0-0.5,0.4-0.9,0.9-0.9h7.8c0.5,0,0.9,0.4,0.9,0.9v27h16.7v-27
		c0-0.5,0.4-0.9,0.9-0.9h7.8c0.5,0,0.9,0.4,0.9,0.9v29.7C270,367.6,269.6,368.1,269.1,368.1L269.1,368.1z"/>
	<path d="M269.1,403.2h-7.8c-0.5,0-0.9-0.4-0.9-0.9v-28.1h-16.7v28.1c0,0.5-0.4,0.9-0.9,0.9h-7.8c-0.5,0-0.9-0.4-0.9-0.9V371
		c0-0.5,0.4-0.9,0.9-0.9c0.5,0,0.9,0.4,0.9,0.9v30.2h5.9v-28.1c0-0.5,0.4-0.9,0.9-0.9h18.6c0.5,0,0.9,0.4,0.9,0.9v28.1h5.9V371
		c0-0.5,0.4-0.9,0.9-0.9c0.5,0,0.9,0.4,0.9,0.9v31.2C270,402.7,269.6,403.2,269.1,403.2L269.1,403.2z"/>
	<path d="M296,403.4c-4.7,0-9-1.6-12.3-4.5c-3.6-3.3-5.6-8-5.6-13.7v-29.3c0-0.5,0.4-0.9,0.9-0.9c0.5,0,0.9,0.4,0.9,0.9v29.3
		c0,5.1,1.7,9.3,5,12.3c2.9,2.6,6.8,4,11,4c4.3,0,8.3-1.5,11.2-4.1c3.3-3,5.1-7.2,5.1-12.2v-29.3c0-0.5,0.4-0.9,0.9-0.9
		c0.5,0,0.9,0.4,0.9,0.9v29.3C314.2,397.2,305,403.4,296,403.4L296,403.4z"/>
	<path d="M294.2,395.7c-0.1,0-0.1,0-0.2,0c-4.9-1-8.1-5.1-8.1-10.5v-46.9H280v13.7c0,0.5-0.4,0.9-0.9,0.9c-0.5,0-0.9-0.4-0.9-0.9
		v-14.6c0-0.5,0.4-0.9,0.9-0.9h7.8c0.5,0,0.9,0.4,0.9,0.9v47.8c0,5.4,3.4,8,6.6,8.6c0.5,0.1,0.8,0.6,0.7,1.1
		C295.1,395.4,294.7,395.7,294.2,395.7L294.2,395.7z"/>
	<path d="M298.1,395.7c-0.4,0-0.8-0.3-0.9-0.8c-0.1-0.5,0.2-1,0.7-1.1c3.2-0.6,6.6-3.2,6.6-8.6v-47.8c0-0.5,0.4-0.9,0.9-0.9h7.8
		c0.5,0,0.9,0.4,0.9,0.9v14.6c0,0.5-0.4,0.9-0.9,0.9c-0.5,0-0.9-0.4-0.9-0.9v-13.7h-5.9v46.9c0,5.4-3.2,9.5-8.1,10.5
		C298.2,395.7,298.1,395.7,298.1,395.7L298.1,395.7z"/>
	<path d="M342.1,374.3c0.2,0,0.3,0,0.5-0.1c15.3-8.6,16.9-13.6,17.5-19.1c0,0,0,0,0,0c0.3-5-1.5-9.8-4.9-13.4
		c-3.5-3.7-8.3-5.7-13.6-5.7c-10.2,0-18.5,8.4-18.5,18.7c0,0.5,0.4,0.9,0.9,0.9h8.2c0.5,0,0.9-0.4,0.9-0.9c0.2-5.1,3.6-8.5,8.4-8.5
		c2.6,0,4.9,1,6.5,2.6c1.4,1.5,2.1,3.5,1.9,5.7c-0.2,3.8-3.3,5.9-8.3,9.1c-0.4,0.3-0.6,0.8-0.3,1.3c0.3,0.4,0.8,0.6,1.3,0.3
		c5.4-3.3,9-5.9,9.2-10.5c0.2-2.7-0.7-5.2-2.4-7.1c-1.9-2.1-4.8-3.2-7.9-3.2c-5.6,0-9.7,3.8-10.2,9.4h-6.4
		c0.5-8.8,7.8-15.9,16.6-15.9c4.8,0,9.1,1.8,12.3,5.1c3.1,3.2,4.6,7.5,4.4,12c-0.5,5-2.1,9.5-16.5,17.6c-0.4,0.3-0.6,0.8-0.4,1.3
		C341.4,374.1,341.8,374.3,342.1,374.3L342.1,374.3z"/>
	<path d="M340.4,404c10.4,0,18.8-8.6,18.8-19.2c0-0.5-0.4-0.9-0.9-0.9H350c-0.5,0-0.9,0.4-0.9,0.9c-0.1,5-3.8,8.7-8.6,8.7
		c-2.6,0-5-1-6.6-2.7c-1.5-1.6-2.2-3.6-2-5.9c0.2-3.8,2.9-5.9,7.4-8.8c0.4-0.3,0.6-0.9,0.3-1.3c-0.3-0.4-0.9-0.6-1.3-0.3
		c-4.9,3.1-8.1,5.6-8.3,10.2c-0.2,2.8,0.7,5.4,2.5,7.3c1.9,2.1,4.8,3.3,8,3.3c5.5,0,9.8-4.1,10.4-9.6h6.5
		c-0.5,9.1-7.9,16.3-16.9,16.3c-4.8,0-9.2-1.9-12.4-5.2c-3.2-3.3-4.8-7.8-4.5-12.4c0.5-5,2-9.8,15.8-17.5c0.5-0.3,0.6-0.8,0.4-1.3
		c-0.3-0.5-0.8-0.6-1.3-0.4c-13.2,7.4-16.1,12.5-16.7,18.9c0,0,0,0,0,0c-0.3,5.1,1.6,10.2,5.1,13.8C330.2,402,335.1,404,340.4,404
		L340.4,404z"/>
	<path d="M279.1,481.4h34.2c0.5,0,0.9-0.4,0.9-0.9v-30.9c0-0.5-0.4-0.9-0.9-0.9c-0.5,0-0.9,0.4-0.9,0.9v30H280v-5.9h25.4
		c0.5,0,0.9-0.4,0.9-0.9v-21.3c0-0.5-0.4-0.9-0.9-0.9h-13.1v-0.9c0-0.5-0.4-0.9-0.9-0.9s-0.9,0.4-0.9,0.9v1.8c0,0.5,0.4,0.9,0.9,0.9
		h13.1v19.4h-25.4c-0.5,0-0.9,0.4-0.9,0.9v7.8C278.1,481,278.6,481.4,279.1,481.4L279.1,481.4z"/>
	<path d="M291.5,446.6c0.5,0,0.9-0.4,0.9-0.9v-1.1h13.1c0.5,0,0.9-0.4,0.9-0.9v-20.2c0-0.5-0.4-0.9-0.9-0.9H280v-5.9h32.3v29
		c0,0.5,0.4,0.9,0.9,0.9c0.5,0,0.9-0.4,0.9-0.9v-30c0-0.5-0.4-0.9-0.9-0.9h-34.2c-0.5,0-0.9,0.4-0.9,0.9v7.8c0,0.5,0.4,0.9,0.9,0.9
		h25.4v18.3h-13.1c-0.5,0-0.9,0.4-0.9,0.9v2C290.5,446.1,290.9,446.6,291.5,446.6L291.5,446.6z"/>
	<path d="M342,481.4h2.1c0.5,0,0.9-0.4,0.9-0.9v-56.1h12.2c0.5,0,0.9-0.4,0.9-0.9v-7.8c0-0.5-0.4-0.9-0.9-0.9H342
		c-0.5,0-0.9,0.4-0.9,0.9c0,0.5,0.4,0.9,0.9,0.9h14.2v5.9H344c-0.5,0-0.9,0.4-0.9,0.9v56.1H342c-0.5,0-0.9,0.4-0.9,0.9
		C341,481,341.4,481.4,342,481.4L342,481.4z"/>
	<path d="M336,481.4h2c0.5,0,0.9-0.4,0.9-0.9c0-0.5-0.4-0.9-0.9-0.9H337v-56.1c0-0.5-0.4-0.9-0.9-0.9h-12.2v-5.9H338
		c0.5,0,0.9-0.4,0.9-0.9c0-0.5-0.4-0.9-0.9-0.9h-15.1c-0.5,0-0.9,0.4-0.9,0.9v7.8c0,0.5,0.4,0.9,0.9,0.9h12.2v56.1
		C335.1,481,335.5,481.4,336,481.4L336,481.4z"/>
	<path d="M340,507.5c-0.2,0-0.5-0.1-0.7-0.3l-18-18c-0.3-0.3-0.3-0.7-0.2-1c0.1-0.3,0.5-0.6,0.9-0.6h16c0.5,0,0.9,0.4,0.9,0.9
		c0,0.5-0.4,0.9-0.9,0.9h-13.8l15.7,15.7l15.7-15.7H342c-0.5,0-0.9-0.4-0.9-0.9c0-0.5,0.4-0.9,0.9-0.9h16c0.4,0,0.7,0.2,0.9,0.6
		c0.1,0.3,0.1,0.8-0.2,1l-18,18C340.4,507.4,340.2,507.5,340,507.5L340,507.5z"/>
</g>
</svg>
